<?xml version="1.0" standalone="no"?>
<!DOCTYPE svg PUBLIC "-//W3C//DTD SVG 20010904//EN"
 "http://www.w3.org/TR/2001/REC-SVG-20010904/DTD/svg10.dtd">
<svg version="1.0" xmlns="http://www.w3.org/2000/svg"
 width="1052.000000pt" height="1052.000000pt" viewBox="0 0 1052.000000 1052.000000"
 preserveAspectRatio="xMidYMid meet">
<metadata>
Created by potrace 1.11, written by Peter Selinger 2001-2013
</metadata>
<g transform="translate(0.000000,1052.000000) scale(0.100000,-0.100000)"
fill="#000000" stroke="none">
<path d="M8593 5713 c-4 -9 -1 -67 6 -127 7 -61 14 -138 17 -171 3 -56 2 -53
-24 50 -16 61 -31 109 -35 108 -30 -7 -31 -11 -8 -112 12 -56 21 -105 18 -107
-2 -2 -16 29 -32 71 -15 41 -30 75 -34 75 -31 -1 -29 -21 19 -160 28 -79 50
-149 50 -157 0 -7 -13 -19 -28 -27 l-29 -15 -154 155 c-84 85 -157 154 -162
154 -4 0 -10 -7 -14 -16 -4 -11 20 -43 78 -102 46 -48 102 -107 124 -131 50
-56 44 -52 -205 138 -139 106 -187 137 -197 129 -7 -6 -13 -14 -13 -18 0 -4
79 -67 175 -139 96 -72 175 -134 175 -137 0 -3 -3 -3 -7 -1 -5 3 -140 84 -300
181 -278 166 -293 174 -304 154 -6 -11 -7 -24 -2 -28 4 -4 114 -70 243 -145
129 -76 288 -169 353 -207 65 -39 117 -72 114 -74 -2 -2 -126 43 -276 101
-150 58 -278 105 -286 105 -9 0 -15 -10 -15 -23 0 -21 25 -32 287 -127 157
-58 288 -110 290 -115 8 -25 -13 -32 -72 -24 -33 4 -186 19 -340 33 -154 15
-292 28 -307 31 -25 4 -28 2 -28 -24 0 -33 -26 -29 378 -57 138 -10 252 -21
252 -26 0 -4 -26 -8 -57 -8 -51 -1 -964 -37 -970 -39 -2 -1 -3 -13 -3 -27 l0
-27 148 7 c81 4 296 16 477 26 182 11 366 19 410 19 l80 -1 -140 -29 c-77 -16
-164 -34 -192 -40 -46 -9 -53 -13 -53 -35 0 -14 6 -24 14 -24 8 0 91 18 186
41 95 22 174 38 176 36 4 -4 -122 -54 -1068 -428 -552 -218 -567 -225 -561
-248 6 -24 5 -24 -48 -17 -30 4 -94 20 -144 35 -119 38 -245 69 -324 79 -55 8
-62 7 -46 -4 10 -8 26 -14 35 -14 20 0 214 -66 340 -115 80 -31 112 -38 200
-44 124 -8 169 -26 263 -106 56 -47 70 -54 143 -69 136 -27 219 -72 331 -178
60 -57 62 -58 120 -58 l59 0 31 63 c29 58 62 105 270 378 86 114 144 209 175
291 29 76 16 80 -25 7 -40 -73 -123 -184 -276 -369 -121 -148 -175 -228 -199
-293 -16 -45 -19 -48 -46 -43 -15 3 -53 29 -83 56 -30 28 -75 64 -100 81 -65
45 -199 105 -268 120 -51 11 -69 22 -127 75 -68 63 -149 104 -203 104 -14 0
-25 4 -25 8 0 4 312 133 693 285 380 152 743 297 806 323 62 25 115 43 118 40
3 -2 -21 -21 -53 -41 -315 -195 -388 -242 -392 -253 -11 -33 35 -19 130 40 57
36 110 68 118 73 41 22 -33 -36 -257 -203 l-241 -179 17 -27 18 -26 194 153
c107 84 244 191 305 239 l110 87 45 -15 c33 -12 73 -15 164 -11 157 5 238 30
306 94 60 56 65 41 6 -19 -25 -26 -66 -54 -100 -68 -32 -13 -59 -32 -63 -42
-6 -21 -17 -22 -45 -7 -17 9 -21 7 -26 -11 -5 -18 -7 -19 -22 -7 -18 17 -90
26 -209 29 -105 2 -104 3 -215 -207 -133 -252 -177 -322 -311 -499 -69 -91
-137 -188 -151 -216 -14 -27 -29 -50 -34 -50 -5 0 -45 5 -87 11 -72 10 -83 15
-136 59 -82 68 -158 95 -377 130 -42 7 -80 19 -90 29 -9 9 -46 49 -83 88 l-66
71 -16 -65 c-22 -87 -45 -129 -111 -205 -67 -75 -80 -116 -95 -281 -23 -246
-79 -366 -195 -418 -72 -31 -126 -33 -286 -8 l-150 23 -122 -27 c-220 -47
-266 -45 -304 13 -52 76 -19 147 115 246 l81 59 1 58 c0 84 20 120 84 150 29
14 60 36 68 49 9 14 53 60 97 104 45 44 81 86 81 94 -1 8 -15 24 -32 35 -18
11 -46 42 -63 69 -24 40 -30 60 -30 105 1 48 9 73 60 173 l59 117 -18 83 c-9
46 -24 106 -33 133 -52 163 -180 332 -273 360 -22 6 -20 2 16 -36 100 -106 80
-138 -50 -79 -72 33 -166 48 -206 32 -25 -9 -25 -9 10 -16 64 -13 158 -47 170
-61 24 -29 -2 -31 -56 -4 -43 22 -71 29 -115 29 -31 0 -64 -3 -73 -6 -24 -9
-8 -24 26 -24 48 0 104 -20 142 -52 57 -47 42 -52 -30 -12 l-66 37 -89 -6
c-75 -6 -94 -4 -116 10 l-26 17 6 -47 c12 -85 18 -91 102 -84 62 4 76 3 89
-12 37 -41 10 -52 -61 -25 -35 14 -56 15 -127 6 -46 -5 -97 -7 -112 -4 -26 5
-25 6 24 28 70 31 67 45 -7 38 -75 -8 -102 -1 -147 38 -28 25 -37 29 -44 18
-7 -12 -13 -11 -32 7 -20 19 -108 49 -108 37 0 -3 8 -21 19 -42 10 -20 28 -67
40 -104 24 -71 58 -113 125 -151 35 -20 41 -29 61 -102 18 -61 31 -86 54 -106
l31 -25 -7 -128 c-7 -136 -4 -145 42 -146 11 0 34 -13 51 -28 l32 -27 -7 -105
-6 -104 -32 41 c-45 56 -74 66 -182 62 -85 -4 -89 -3 -74 13 9 10 44 34 79 55
118 69 83 76 -59 12 -103 -47 -168 -92 -231 -160 -77 -83 -102 -131 -110 -209
-6 -60 -9 -68 -55 -115 -117 -121 -174 -209 -205 -318 -9 -31 -29 -71 -44 -88
l-27 -30 -115 21 c-63 12 -223 39 -355 61 -282 47 -395 71 -475 100 -94 34
-94 35 -101 228 -4 126 -10 177 -23 211 -20 49 -21 58 -18 177 2 79 3 82 31
99 44 26 67 77 95 213 15 68 29 128 32 132 3 5 -2 9 -10 9 -17 0 -38 -28 -91
-124 -42 -78 -46 -76 -60 23 -7 50 -9 53 -21 36 -27 -36 -33 -82 -20 -145 14
-66 6 -88 -14 -40 -17 40 -49 47 -101 22 -66 -33 -103 -8 -134 86 -18 55 -58
112 -70 100 -9 -9 12 -166 29 -215 8 -23 26 -47 47 -61 19 -13 35 -27 37 -31
6 -16 -40 -61 -63 -61 -26 0 -55 -24 -55 -45 0 -7 7 -21 15 -29 12 -11 13 -21
6 -34 -8 -14 -1 -25 39 -57 l49 -40 1 -90 c0 -49 3 -121 7 -159 6 -63 5 -68
-13 -65 -12 3 -35 35 -65 92 -63 122 -78 135 -169 146 -98 13 -110 6 -110 -63
0 -53 1 -54 143 -242 136 -180 144 -189 187 -200 25 -6 65 -23 90 -37 25 -14
79 -35 120 -46 41 -12 151 -57 245 -100 461 -215 688 -298 886 -324 85 -10 86
-10 150 20 35 16 91 55 124 85 33 30 114 92 180 136 161 108 271 198 352 287
l67 74 62 -127 c34 -70 84 -163 110 -207 27 -44 64 -115 83 -158 l34 -78 -36
-77 c-19 -42 -44 -109 -56 -149 -24 -83 -9 -76 -201 -93 -417 -38 -690 -119
-1005 -298 -174 -99 -367 -267 -415 -362 -41 -80 -18 -214 72 -423 50 -117 61
-127 239 -221 120 -63 129 -66 196 -66 38 0 155 11 259 24 716 93 2097 93
2798 0 184 -24 211 -21 336 35 191 85 330 184 373 265 17 32 21 59 22 127 0
78 -3 91 -37 160 -67 136 -184 268 -316 358 -79 53 -283 168 -367 206 -138 63
-350 123 -545 155 -120 20 -120 20 -120 45 0 25 -4 29 -52 66 -16 11 -28 28
-28 37 0 8 -9 25 -20 37 -11 11 -26 39 -33 60 -13 38 -22 47 -109 100 -18 11
-34 28 -36 37 -2 10 26 91 61 180 36 90 70 181 77 203 7 22 30 86 51 142 43
114 69 242 69 339 0 45 4 64 13 64 6 0 62 -16 122 -36 65 -21 192 -49 311 -69
274 -46 457 -82 533 -105 113 -35 137 -27 201 70 13 19 63 76 112 126 103 107
100 100 275 544 68 173 132 335 141 360 l18 44 135 48 c74 26 154 53 179 59
46 11 69 31 170 147 l55 62 138 -96 c125 -86 167 -105 167 -75 0 11 -214 164
-255 183 -23 10 -35 38 -17 38 5 0 161 -72 347 -161 316 -150 340 -160 352
-143 7 10 10 21 5 26 -4 4 -127 62 -272 129 -146 67 -295 136 -332 153 -51 23
-65 34 -59 45 7 11 51 3 242 -48 129 -33 242 -61 251 -61 15 0 36 36 26 45 -2
2 -103 27 -223 55 -272 62 -262 59 -236 87 20 21 26 21 171 16 145 -6 150 -5
150 14 0 17 -9 21 -61 27 -34 3 -114 6 -178 7 -240 1 -217 12 109 52 168 21
324 40 346 43 35 5 41 9 37 25 -3 10 -14 19 -24 19 -16 0 -189 -21 -573 -71
-43 -5 -80 -8 -82 -6 -3 2 56 22 131 43 105 30 135 43 135 56 0 9 -4 19 -8 22
-5 3 -63 -12 -129 -33 -133 -42 -193 -56 -178 -42 6 5 96 53 200 106 261 134
275 143 269 160 -9 24 -27 18 -134 -40 -226 -123 -256 -131 -95 -25 52 34 95
65 95 69 0 3 -4 13 -9 20 -8 12 -32 0 -128 -64 -175 -118 -186 -123 -98 -40
64 61 77 77 65 85 -8 5 -18 10 -21 10 -7 0 -219 -189 -219 -195 0 -3 7 -23 16
-45 32 -79 -3 -174 -80 -221 -45 -28 -133 -26 -176 4 -67 45 -97 117 -80 191
26 117 143 168 255 114 l46 -23 20 25 c18 25 18 25 -2 42 l-20 17 20 40 c18
34 19 40 5 45 -23 9 -22 9 -44 -34 -11 -22 -22 -40 -25 -40 -2 0 16 59 42 131
38 108 44 132 32 140 -8 5 -18 7 -23 6 -5 -2 -29 -65 -53 -141 -24 -76 -47
-136 -50 -133 -2 3 1 39 7 81 12 77 9 96 -14 96 -9 0 -19 -30 -28 -87 l-16
-88 -1 208 -1 208 -22 -3 c-23 -3 -23 -5 -20 -123 5 -180 -12 -202 -27 -34
-20 221 -22 239 -38 239 -7 0 -17 -8 -20 -17z m-95 -1000 c2 -9 -7 -13 -28
-13 -28 0 -31 2 -20 15 15 18 41 16 48 -2z m-2911 -111 c18 -13 33 -31 33 -38
0 -21 -9 -17 -53 22 -39 35 -42 36 -98 30 -32 -3 -66 -2 -76 2 -22 9 89 21
132 14 16 -3 44 -16 62 -30z m388 -75 c-7 -16 -62 -43 -71 -35 -4 5 68 58 74
53 1 -1 0 -9 -3 -18z m45 -75 c0 -16 -25 -40 -50 -47 l-25 -7 29 31 c29 30 46
39 46 23z m-231 -48 c-21 -26 -73 -44 -121 -43 l-43 0 50 18 c28 10 66 25 85
33 41 18 48 15 29 -8z m162 -95 c11 -21 10 -22 -21 -16 -22 5 -46 1 -77 -13
-56 -25 -56 -25 -43 0 26 48 120 67 141 29z m-2748 -532 c-6 -68 -18 -91 -33
-67 -22 35 -1 144 26 133 10 -4 12 -19 7 -66z m77 -46 c6 -36 5 -41 -11 -41
-16 0 -19 8 -19 52 0 61 18 55 30 -11z m-140 -94 c70 -8 79 -12 63 -28 -8 -8
-32 -9 -79 -3 -67 9 -67 9 -80 49 l-14 40 23 -26 c19 -21 36 -27 87 -32z m99
-104 c11 -39 35 -181 46 -268 6 -47 5 -49 -9 -29 -8 12 -24 79 -35 150 -13 85
-25 132 -35 139 -13 10 -13 13 2 28 9 9 17 17 19 17 1 0 7 -17 12 -37z m65
-35 c3 -13 8 -57 11 -98 l4 -75 -18 70 c-21 77 -26 125 -12 125 5 0 11 -10 15
-22z m-339 -211 l51 -92 75 -11 c87 -14 215 -56 238 -79 14 -14 14 -17 1 -26
-8 -5 -34 -7 -57 -4 -54 8 -221 61 -251 81 -18 12 -132 219 -132 241 0 17 28
-24 75 -110z m-93 8 c14 -33 28 -76 32 -95 l7 -35 -16 27 c-15 27 -75 183 -75
196 0 14 27 -35 52 -93z m1908 8 c34 -53 40 -115 14 -151 -14 -21 -14 -24 9
-51 13 -16 30 -50 37 -75 11 -42 11 -51 -6 -89 -33 -73 -200 -234 -292 -281
-30 -16 -36 -16 -57 -2 -15 10 -27 31 -32 58 l-9 43 -54 2 c-90 4 -239 24
-330 44 -213 46 -665 200 -657 223 6 17 43 10 157 -29 88 -31 147 -42 360 -70
140 -18 307 -39 372 -46 l116 -12 50 36 c27 20 75 66 107 102 48 55 54 65 35
65 -25 0 -22 16 15 90 24 48 122 190 130 190 3 0 19 -21 35 -47z m1738 -901
c34 -20 102 -136 102 -173 0 -34 -306 -616 -318 -604 -2 2 6 42 18 89 12 47
20 90 18 97 -2 7 -22 -14 -43 -47 -112 -169 -271 -306 -470 -404 -145 -72
-172 -79 -214 -54 -17 10 -31 21 -31 25 0 3 35 14 77 23 216 47 441 213 630
464 78 103 207 299 249 379 l36 68 -100 -106 c-168 -177 -387 -362 -557 -471
-116 -75 -295 -158 -340 -158 -11 0 -31 147 -21 157 2 2 56 17 119 33 223 55
404 143 554 269 70 60 224 226 245 265 9 17 8 17 -21 -3 -17 -12 -54 -42 -83
-67 -145 -124 -381 -259 -537 -308 -98 -31 -262 -62 -284 -53 -13 5 -35 83
-25 92 1 2 59 13 128 24 218 37 383 94 525 180 83 50 189 135 211 168 15 24
15 24 -7 12 -13 -6 -44 -27 -70 -45 -138 -100 -453 -197 -713 -220 l-78 -7
-19 -41 c-28 -64 -58 -227 -70 -381 -15 -197 -27 -239 -28 -103 -1 59 -5 109
-9 112 -4 2 -20 -17 -34 -43 -30 -53 -119 -141 -143 -141 -21 0 -19 38 6 105
12 31 19 59 16 61 -3 3 -64 -24 -136 -60 l-131 -66 -52 21 c-167 67 -309 71
-468 14 -174 -62 -208 -73 -247 -78 -42 -5 -43 -4 -62 36 -10 23 -37 60 -59
81 -38 36 -44 38 -84 33 -24 -3 -53 -9 -63 -12 -32 -10 106 116 187 172 285
196 661 321 1096 363 164 16 246 13 286 -10 32 -20 41 -20 163 -10 243 20 349
45 509 121 97 46 137 82 55 49 -70 -27 -190 -57 -279 -70 -123 -17 -260 17
-329 82 -27 25 -30 72 -8 124 11 26 19 34 32 30 10 -3 83 -10 163 -17 212 -16
372 3 560 70 l55 19 30 -33 c17 -19 45 -43 63 -53z m397 -363 c390 -64 699
-195 949 -404 44 -36 95 -84 114 -105 30 -36 31 -40 13 -40 -65 0 -126 -24
-173 -68 l-49 -46 -97 32 c-96 31 -193 46 -472 77 -80 8 -160 17 -179 20 -50
6 -26 -10 44 -30 137 -39 290 -150 362 -262 39 -62 49 -102 33 -133 -16 -30
-101 -67 -197 -86 -105 -21 -474 -24 -598 -5 -114 17 -399 75 -507 103 -73 19
-122 22 -413 28 -225 4 -348 11 -387 20 -54 13 -60 13 -107 -9 -27 -13 -75
-50 -107 -82 -32 -33 -64 -59 -71 -59 -24 0 -37 46 -23 79 16 39 36 56 85 71
22 7 60 27 85 43 104 72 180 75 318 15 159 -68 214 -61 476 59 205 94 334 144
438 167 26 6 27 5 21 -26 l-6 -31 48 36 c63 48 143 73 329 102 21 4 36 8 34
10 -2 2 -59 11 -126 20 -147 19 -161 24 -196 66 -44 52 -35 117 37 260 31 63
70 135 87 162 35 54 11 53 235 16z m-1962 -994 c17 -7 33 -42 23 -52 -15 -15
-413 -29 -477 -16 -27 5 -7 12 127 44 132 32 172 38 234 34 42 -2 83 -7 93
-10z m277 -42 c0 -25 -30 -53 -57 -53 l-25 0 32 40 c31 40 50 44 50 13z"/>
<path d="M5515 4915 c-33 -7 -102 -29 -153 -49 -52 -20 -96 -36 -98 -36 -2 0
-4 7 -4 15 0 8 -4 15 -9 15 -13 0 -71 -69 -71 -85 0 -28 129 -50 152 -27 6 6
-9 12 -34 16 -53 9 -53 9 126 76 110 41 158 53 225 59 l86 7 -40 12 c-50 15
-103 14 -180 -3z"/>
<path d="M5139 4794 c-25 -28 -32 -63 -18 -80 16 -20 83 -54 106 -54 13 0 7
10 -21 39 -25 26 -41 53 -45 77 -6 34 -7 35 -22 18z"/>
<path d="M5058 4763 c-9 -10 -19 -30 -23 -44 -6 -25 -2 -29 48 -52 99 -45 107
-45 60 4 -23 24 -47 59 -55 77 -13 33 -14 33 -30 15z"/>
</g>
</svg>
