<svg width="30px" height="20px" viewBox="0 0 30 20" version="1.1" xmlns="http://www.w3.org/2000/svg" xmlns:xlink="http://www.w3.org/1999/xlink">
    <!-- Generator: Sketch 3.8.1 (29687) - http://www.bohemiancoding.com/sketch -->
    <title>meetup</title>
    <desc>Created with Sketch.</desc>
    <defs></defs>
    <g id="Page-1" stroke="none" stroke-width="1" fill="none" fill-rule="evenodd">
        <g id="meetup" fill="currentColor">
            <g id="Page-1">
                <g id="Artboard-1">
                    <path d="M27.9021696,20 C28.5225091,20 29.027081,19.8035364 29.4158854,19.410609 C29.8046896,19.0176818 29.9990917,18.5025104 29.9990917,17.865095 L29.9990917,2.03012442 C29.9990917,1.52368479 29.8440069,1.08491596 29.5338372,0.713817937 C29.2236675,0.342719925 28.8064674,0.104780612 28.2822369,0 L27.941487,0 L2.00518176,0 C1.42852817,0 0.950167826,0.1920978 0.570100696,0.576293387 C0.190033565,0.960488975 0,1.44509932 0,2.03012442 L0,17.9436804 C0,18.5287055 0.192217859,19.0176818 0.576653578,19.410609 C0.961089295,19.8035364 1.45037111,20 2.04449905,20 L14.992993,20 L27.9021696,20 L27.9021696,20 L27.9021696,20 Z M29.6845535,2.64571054 L29.6845535,14.6561886 L29.487967,14.6561886 L0.498018999,14.6561886 C0.340749841,14.6561886 0.262115263,14.5907008 0.262115263,14.459725 C0.297063964,10.5828421 0.297063964,6.72342284 0.262115263,2.88146692 C0.262115263,2.78541802 0.279589614,2.72211307 0.314538315,2.69155206 C0.349487016,2.66099105 0.410647245,2.64571054 0.498018999,2.64571054 L29.487967,2.64571054 L29.6845535,2.64571054 L29.6845535,2.64571054 L29.6845535,2.64571054 Z M19.0950969,8.72298625 C19.1125712,8.70552275 19.1344141,8.68805937 19.1606256,8.670596 C19.1868372,8.6531325 19.2108645,8.637852 19.2327074,8.62475438 C19.2545504,8.61165687 19.2807619,8.59419337 19.311342,8.57236413 C19.3419221,8.55053487 19.3659492,8.52652262 19.3834236,8.5003275 C18.955302,8.31696137 18.6189208,8.22527837 18.3742799,8.22527837 C18.1733249,8.22527837 18.0575572,8.20999787 18.0269771,8.17943675 C17.996397,8.14887575 17.9898441,8.0331805 18.0073185,7.832351 L18.0073185,6.05108055 L18.0073185,5.82842174 L17.2865015,5.71054355 C17.26029,5.71054355 17.2340785,5.72800699 17.207867,5.76293386 C17.1816555,5.79786072 17.1685497,5.8327876 17.1685497,5.86771447 C17.1510754,6.05108055 17.1357852,6.32394674 17.1226795,6.68631304 C17.1095737,7.04867932 17.0986522,7.31717965 17.0899151,7.49181401 C17.0899151,7.57913125 17.0637036,7.76249725 17.0112805,8.04191225 C17.0112805,8.050644 17.0047276,8.06155862 16.9916219,8.07465625 C16.9785161,8.08775375 16.9610417,8.10085137 16.9391989,8.11394888 C16.9173559,8.1270465 16.9020659,8.13796112 16.8933286,8.14669287 C16.5787904,8.14669287 16.3472552,8.1597905 16.1987232,8.18598562 C15.9628195,8.18598562 15.8448676,8.29076625 15.8448676,8.5003275 C15.8536047,8.57891287 15.877632,8.64440075 15.9169492,8.69679112 C15.9562666,8.74918137 16.0043211,8.78847412 16.0611127,8.81466925 C16.1179044,8.8408645 16.1768802,8.84959612 16.2380405,8.8408645 C16.5438416,8.8408645 16.7753767,8.82776687 16.932646,8.80157175 C16.9151716,8.92381575 16.8998815,9.100633 16.8867757,9.33202362 C16.87367,9.56341412 16.8627485,9.7358655 16.8540114,9.84937787 C16.836537,9.98908537 16.8081412,10.2270246 16.7688239,10.5631957 C16.7295066,10.899367 16.6989265,11.1613185 16.6770836,11.3490504 C16.6552406,11.5367824 16.6377662,11.7725387 16.6246605,12.0563196 C16.6115547,12.3401004 16.6093705,12.599869 16.6181076,12.8356254 C16.6181076,12.879284 16.6312134,12.9535036 16.6574249,13.0582842 C16.6836365,13.1630649 16.6967422,13.2416502 16.6967422,13.2940406 C16.7229537,13.3900895 16.762271,13.4533945 16.8146941,13.4839555 C16.8671171,13.5145165 16.9457517,13.529797 17.0505979,13.529797 C17.3389246,13.529797 17.63162,13.4119187 17.928684,13.1761624 C17.981107,13.0713817 18.0073185,12.9578695 18.0073185,12.8356254 C17.9024724,12.2942589 17.9024724,11.5302336 18.0073185,10.5435495 C18.0073185,10.4300371 18.0160557,10.2554027 18.03353,10.0196464 C18.0510044,9.78389 18.0597416,9.60052387 18.0597416,9.46954812 C18.0597416,9.37349925 18.0291615,9.2425235 17.9680013,9.07662087 C17.9505269,8.98930362 17.965817,8.93473037 18.0138714,8.91290112 C18.0619259,8.89107187 18.1165332,8.89325475 18.1776935,8.91944987 C18.1776935,8.99803537 18.1907992,9.06352325 18.2170108,9.1159135 C18.2170108,9.2119625 18.2301165,9.25998687 18.256328,9.25998687 C18.3436997,9.3036455 18.4310715,9.3036455 18.5184432,9.25998687 C18.6757125,9.14647462 18.8679303,8.96747437 19.0950969,8.72298625 L19.0950969,8.72298625 L19.0950969,8.72298625 Z M8.47942874,8.64440075 L9.06918807,6.32612966 C9.0953996,6.2475442 9.1347169,6.15586116 9.18713995,6.05108055 L8.95123621,5.97249509 C8.79396705,5.92010477 8.59738061,5.87208034 8.36147688,5.82842174 C8.30905382,5.81969002 8.26755224,5.81532416 8.23697213,5.81532416 C8.20639201,5.81532416 8.17799619,5.8175071 8.15178466,5.82187295 C8.12557314,5.82623881 8.10591449,5.83060467 8.09280873,5.83497052 C8.07970296,5.83933639 8.06441291,5.85243396 8.04693856,5.87426326 C8.0294642,5.89609255 8.01854274,5.91355599 8.01417415,5.92665357 C8.00980556,5.93975115 7.99888409,5.97031216 7.98140974,6.01833661 C7.96393539,6.06636106 7.95082962,6.10347086 7.94209245,6.12966601 C7.9246181,6.20825147 7.88311651,6.32394674 7.8175877,6.4767518 C7.75205889,6.62955686 7.71492589,6.74961799 7.70618871,6.83693516 C7.61881696,7.13381357 7.4964965,7.555119 7.33922735,8.10085137 C7.18195819,8.64658375 7.08584926,8.98493775 7.05090056,9.1159135 C7.04216339,9.133377 7.02687333,9.17485262 7.00503039,9.2403405 C6.98318745,9.30582837 6.95916021,9.35603575 6.93294869,9.39096262 C6.90673716,9.3036455 6.8936314,9.17266975 6.8936314,8.99803537 L6.77567954,7.05959397 C6.77567954,6.83256931 6.73636225,6.62737394 6.65772766,6.44400786 C6.65772766,6.33922724 6.59656744,6.28683694 6.47424699,6.28683694 C6.37813805,6.27810521 6.23834325,6.26719057 6.05486256,6.25409299 C5.87138187,6.24099541 5.73595566,6.22571491 5.6485839,6.20825147 C5.50005193,6.1733246 5.37336287,6.22571491 5.26851677,6.3654224 C4.80544647,7.08142327 4.53022545,7.51800912 4.4428537,7.67518012 C4.407905,7.710107 4.3729563,7.76249725 4.33800759,7.832351 C4.33800759,7.81488762 4.3358233,7.80397287 4.33145471,7.79960712 C4.32708612,7.79524125 4.31616465,7.79305825 4.2986903,7.79305825 C4.35111335,7.39139926 4.38606206,7.13381357 4.40353641,7.02030125 C4.42974794,6.97664265 4.4428537,6.9286182 4.4428537,6.8762279 C4.46906522,6.73652041 4.47124951,6.62737394 4.44940657,6.54878847 C4.42756364,6.47020301 4.38824635,6.41126391 4.33145471,6.37197119 C4.27466307,6.33267845 4.17200126,6.2912028 4.02346928,6.2475442 C3.91862317,6.21261734 3.77882836,6.1733246 3.60408486,6.12966601 C3.4468157,6.11220257 3.33104812,6.12748309 3.25678214,6.17550752 C3.18251615,6.22353197 3.1279088,6.32176381 3.0929601,6.47020301 C2.91821659,7.7537655 2.86579354,8.90635237 2.93569094,9.92796337 L2.93569094,10.5042567 C2.93569094,10.5479152 2.96190246,10.6046715 3.01432551,10.6745252 C3.47739581,10.7967692 3.81377706,10.8447937 4.02346928,10.8185985 C4.18947561,10.77494 4.30742747,10.6832569 4.37732489,10.5435495 C4.54333121,10.2379394 4.8666067,9.61798737 5.34715135,8.6836935 C5.41704876,8.61383975 5.46510323,8.52652262 5.49131475,8.421742 C5.51752627,8.65749837 5.55684356,8.91071812 5.60926661,9.1814015 C5.76653578,9.94979262 5.91943634,10.5217201 6.06796833,10.897184 C6.10291702,10.9670377 6.14005003,11.0456232 6.17936731,11.1329404 C6.2186846,11.2202576 6.2558176,11.3097577 6.2907663,11.4014407 C6.325715,11.4931237 6.3606637,11.5695262 6.3956124,11.6306484 C6.3956124,11.6481117 6.41745534,11.672124 6.46114123,11.702685 C6.5048271,11.733246 6.53540721,11.7485265 6.55288156,11.7485265 C7.00721469,11.7485265 7.34359594,11.735429 7.56202533,11.7092337 C7.6057112,11.6917704 7.69308295,11.5869897 7.82414059,11.394892 C7.87656364,11.2901114 7.90277516,11.2289892 7.90277516,11.2115259 L8.47942874,8.64440075 L8.47942874,8.64440075 Z M15.766233,6.8762279 C16.0196111,6.77144729 16.1637745,6.61427636 16.1987233,6.40471512 C16.1725118,6.39598341 16.1397473,6.37851997 16.10043,6.35232482 L16.0021368,6.28683694 C15.5390665,6.05108055 15.1502621,5.94629994 14.8357239,5.97249509 C14.1018011,6.03361711 13.5863077,6.15149531 13.2892437,6.32612966 C13.2717695,6.3435931 13.2433736,6.36760532 13.2040564,6.39816634 C13.164739,6.42872735 13.1297904,6.45928836 13.0992103,6.48984937 C13.0686301,6.52041039 13.0446029,6.55315434 13.0271285,6.5880812 C12.9921799,6.64920322 12.9441254,6.71905697 12.8829651,6.79764244 C12.8218049,6.8762279 12.7671976,6.94389871 12.7191431,7.00065487 C12.6710886,7.05741105 12.6252185,7.13163065 12.5815326,7.22331369 C12.5378467,7.31499672 12.5116352,7.40449684 12.502898,7.49181401 L12.502898,7.989522 L12.502898,8.57891287 C12.5116352,8.65749837 12.5422152,8.77319362 12.5946384,8.92599875 C12.6470614,9.07880375 12.6820101,9.19013312 12.6994845,9.25998687 C12.8654907,9.906134 13.0489715,10.3601834 13.2499265,10.6221349 C13.3110868,10.7007204 13.3787999,10.7836716 13.4530659,10.8709889 C13.5273319,10.958306 13.6147036,11.052172 13.7151811,11.1525867 C13.8156586,11.2530015 13.8921089,11.3337699 13.944532,11.394892 C14.0581153,11.517136 14.1651456,11.5891726 14.2656231,11.611002 C14.3661006,11.6328312 14.494974,11.6131849 14.6522431,11.5520629 C14.695929,11.5258677 14.7439835,11.5018555 14.7964066,11.4800262 C14.8488296,11.4581969 14.8946998,11.4385505 14.9340171,11.4210871 C14.9733344,11.4036236 15.0213889,11.3861602 15.0781805,11.3686967 C15.1349721,11.3512334 15.1808422,11.3337699 15.215791,11.3163065 C15.3031628,11.298843 15.379613,11.2595504 15.4451419,11.1984282 C15.5106706,11.1373062 15.543435,11.0630866 15.543435,10.9757695 L15.543435,10.681074 L15.543435,10.3470857 C15.543435,10.3470857 15.5368821,10.2532199 15.5237764,10.0654879 C15.5106706,9.877756 15.491012,9.77952413 15.4648005,9.77079237 C15.4123774,9.62235325 15.3752444,9.4586335 15.3534015,9.27963325 C15.3315585,9.100633 15.3140843,8.91071812 15.3009785,8.70988862 C15.2878726,8.50905912 15.2725826,8.34752237 15.2551083,8.22527837 C15.2551083,8.19908312 15.2616611,8.1597905 15.2747669,8.10740012 C15.2878726,8.05500987 15.2944255,8.01571712 15.2944255,7.989522 C15.1284193,7.893473 14.9449385,7.834534 14.7439835,7.81270462 C14.5430285,7.79087537 14.368285,7.79305825 14.219753,7.8192535 C14.071221,7.84544862 13.8877404,7.88910712 13.6693109,7.95022925 C13.5819391,7.61842387 13.6081508,7.33464309 13.7479455,7.0988867 C13.9401634,6.86313032 14.0624839,6.71905697 14.1149069,6.66666666 C14.2372274,6.46583715 14.4381824,6.39161755 14.717772,6.44400786 C14.9012526,6.44400786 15.1065762,6.49203231 15.3337429,6.5880812 C15.3512173,6.5880812 15.379613,6.60554464 15.4189303,6.64047151 C15.4582476,6.67539839 15.4866434,6.71469111 15.5041178,6.7583497 C15.5827524,6.87186204 15.6701241,6.91115477 15.766233,6.8762279 L15.766233,6.8762279 L15.766233,6.8762279 Z M12.004879,6.5880812 C12.1359366,6.57061778 12.2385985,6.55315434 12.3128644,6.5356909 C12.3871304,6.51822746 12.4723179,6.48330059 12.5684269,6.43091029 C12.6645357,6.37851998 12.7519075,6.30430038 12.8305421,6.20825147 C12.7606447,6.19078804 12.6230341,6.15149531 12.4177106,6.09037328 C12.2123869,6.02925125 12.0529335,5.98995853 11.9393502,5.97249509 C11.8956643,5.95503165 11.8432413,5.93975115 11.782081,5.92665358 C11.7209208,5.91355599 11.6510234,5.90264135 11.5723888,5.89390963 C11.4937543,5.88517791 11.432594,5.87644619 11.3889081,5.86771448 C11.1005814,5.80659245 10.7423572,5.84151933 10.3142356,5.97249509 C10.288024,5.98122681 10.1525978,6.04671469 9.90795692,6.16895874 C9.88174539,6.18642218 9.84898099,6.21480026 9.8096637,6.25409299 C9.77034641,6.29338573 9.74195059,6.31739795 9.72447624,6.32612966 C9.33130334,6.50949574 9.11287396,6.87186204 9.06918807,7.41322855 C9.06918807,7.50054575 9.06700379,7.62278975 9.0626352,7.77996075 C9.05826661,7.93713163 9.05608231,8.07683912 9.05608231,8.19908313 C9.05608231,8.32132725 9.0604509,8.4348395 9.06918807,8.53962013 C9.07792525,8.60074225 9.09103101,8.72080337 9.10850537,8.8998035 C9.12597972,9.07880375 9.14345407,9.21414538 9.16092842,9.30582838 C9.17840277,9.3975115 9.20243,9.51757262 9.23301012,9.66601175 C9.26359024,9.814451 9.30727611,9.94542675 9.36406775,10.0589391 C9.42085939,10.1724514 9.4885725,10.2815979 9.56720707,10.3863785 C9.62836731,10.4562322 9.69608041,10.5282689 9.77034641,10.6024885 C9.8446124,10.6767081 9.93198415,10.7574765 10.0324617,10.8447938 C10.1329392,10.9321109 10.2137581,11.0019646 10.2749183,11.054355 L10.3666586,11.146038 C10.3666586,11.146038 10.3972387,11.1809649 10.458399,11.2508186 C10.5894566,11.3381358 10.7423572,11.3599651 10.9171007,11.3163065 C11.1355301,11.298843 11.4238568,11.237721 11.782081,11.1329404 C11.8694528,11.1067453 11.9437188,11.0019646 12.004879,10.8185985 C12.0835136,10.5828421 12.1228309,10.3383541 12.1228309,10.0851343 C12.1752539,9.66601175 12.2014655,9.34293825 12.2014655,9.1159135 C12.2014655,9.01986463 12.1949126,8.91944988 12.1818068,8.81466925 C12.1687011,8.70988862 12.1512267,8.5898275 12.1293838,8.45448587 C12.1075408,8.31914425 12.0922508,8.21654663 12.0835136,8.14669287 C12.0835136,8.12922938 12.0638549,8.111766 12.0245377,8.0943025 C11.9852204,8.07683912 11.9568245,8.06810738 11.9393502,8.06810738 C11.3889081,8.04191225 10.934575,8.06810738 10.5763508,8.14669287 L10.458399,8.14669287 L10.3404471,8.14669287 C10.2967612,7.78869238 10.3011298,7.47653351 10.3535529,7.21021611 C10.4059759,6.94389871 10.5457707,6.71032526 10.7729373,6.50949574 C10.9127321,6.36978825 11.0525269,6.33486139 11.1923217,6.40471513 C11.2360076,6.42217856 11.3255636,6.45055665 11.4609898,6.48984938 C11.5964161,6.52914211 11.7034465,6.56188605 11.782081,6.5880812 C11.7995554,6.5880812 11.819214,6.59026414 11.841057,6.59462999 C11.8628999,6.59899585 11.8825586,6.60117879 11.9000329,6.60117879 L11.952456,6.60117879 C11.952456,6.60117879 11.9699303,6.59681293 12.004879,6.5880812 L12.004879,6.5880812 L12.004879,6.5880812 Z M26.4343242,10.9364768 C26.574119,10.8753548 26.7008081,10.7705741 26.8143914,10.6221349 C27.1813527,9.87120713 27.1551411,9.04605975 26.7357567,8.14669288 C26.6658594,7.9720585 26.4867472,7.7537655 26.1984205,7.49181401 C26.0062026,7.27352106 25.7091386,6.99847195 25.3072286,6.66666666 C25.1586966,6.57061778 24.8703699,6.44400786 24.4422482,6.28683694 C24.433511,6.27810521 24.418221,6.27155643 24.396378,6.26719058 C24.3745351,6.26282471 24.3614294,6.25627593 24.3570607,6.2475442 C24.3526921,6.23881249 24.343955,6.23008076 24.3308492,6.22134905 C24.3177435,6.21261734 24.3090062,6.20170269 24.3046378,6.18860511 C24.3002691,6.17550753 24.2980849,6.15586116 24.2980849,6.12966601 C24.306822,5.9288365 24.322112,5.61449465 24.343955,5.18664048 C24.3657979,4.75878629 24.3854566,4.44444445 24.4029309,4.24361493 C24.4204052,4.14756604 24.4619069,4.00785855 24.5274356,3.82449248 C24.5929645,3.64112639 24.6300975,3.53197991 24.6388346,3.49705305 L24.2980849,3.49705305 C24.2718732,3.49705305 24.2260031,3.50360184 24.1604744,3.51669941 C24.0949455,3.52979699 24.0490754,3.53634578 24.0228637,3.53634578 C23.9442292,3.51015063 23.8175401,3.49705305 23.6427966,3.49705305 C23.6165851,3.49705305 23.5903736,3.51451648 23.5641621,3.54944335 C23.5379506,3.58437023 23.5248447,3.6192971 23.5248447,3.65422396 C23.3151526,4.28290766 23.184095,5.12115259 23.1316719,6.16895874 C23.1316719,6.30866623 23.0792489,6.40908099 22.9744027,6.47020301 C22.7996592,6.54005675 22.7341304,6.68849596 22.7778162,6.91552063 C22.8215021,7.01156953 22.887031,7.05959398 22.9744027,7.05959398 C23.0705116,7.09452085 23.1360405,7.16000874 23.1709892,7.25605763 C23.2758353,8.10303425 23.3806814,8.70988863 23.4855275,9.07662088 C23.6340595,9.7053045 23.8393831,10.1680856 24.1014984,10.464964 C24.381088,10.8404279 24.7174693,11.1023794 25.1106421,11.2508186 C25.3203344,11.3119406 25.5125522,11.298843 25.6872957,11.2115259 C25.7921419,11.1853308 25.927568,11.1373063 26.0935744,11.0674525 C26.2595807,10.9975988 26.373164,10.9539403 26.4343242,10.9364768 L26.4343242,10.9364768 L26.4343242,10.9364768 Z M24.3636136,7.29535036 C24.9752159,7.64461913 25.4033375,8.09866837 25.6479784,8.65749837 C25.8926194,9.21632837 25.9057251,9.79262175 25.6872958,10.3863785 C25.6610843,10.3601834 25.6239513,10.3252565 25.5758968,10.2815979 C25.5278423,10.2379394 25.4863406,10.1964636 25.451392,10.1571709 C25.4164433,10.1178783 25.3814946,10.0807684 25.3465459,10.0458415 C25.005796,9.61798737 24.730575,8.97184025 24.5208827,8.10740012 C24.5034085,8.01135125 24.4750126,7.87382662 24.4356954,7.6948265 C24.396378,7.51582625 24.3723509,7.38266754 24.3636136,7.29535036 L24.3636136,7.29535036 L24.3636136,7.29535036 Z M10.458399,9.1159135 C10.3885016,8.9325475 10.4409246,8.8408645 10.6156681,8.8408645 C10.6331425,8.8408645 10.6615383,8.83431563 10.7008556,8.82121813 C10.7401729,8.8081205 10.7642001,8.80157175 10.7729373,8.80157175 L10.8777834,8.88015713 L10.8777834,10.0458415 C10.860309,10.0458415 10.8515719,10.0589391 10.8515719,10.0851343 C10.8428347,10.0764025 10.8275446,10.0567561 10.8057017,10.0261951 C10.7838587,9.99563413 10.7729373,9.96289025 10.7729373,9.92796338 C10.6244053,9.596158 10.5195592,9.32547475 10.458399,9.1159135 L10.458399,9.1159135 L10.458399,9.1159135 Z M13.7872628,8.6836935 L13.7872628,8.57891288 C13.996955,8.52652263 14.1542241,8.5003275 14.2590703,8.5003275 C14.3114934,8.59637638 14.3377049,8.670596 14.3377049,8.72298625 L14.3377049,10.0851343 C14.3114934,10.0851343 14.2983876,10.0720366 14.2983876,10.0458415 C14.2372274,9.87120713 14.145487,9.626719 14.0231665,9.31237725 C13.9008461,8.99803538 13.8222115,8.78847413 13.7872628,8.6836935 L13.7872628,8.6836935 L13.7872628,8.6836935 Z M23.01372,9.14210875 C23.0574059,8.63566912 22.9787714,8.14669287 22.7778162,7.67518012 C22.7778162,7.65771662 22.7712634,7.64243612 22.7581576,7.62933862 C22.7450519,7.616241 22.738499,7.60532637 22.738499,7.59659462 C22.6686016,7.5703995 22.6139942,7.53547262 22.574677,7.49181401 C22.5353596,7.44815542 22.4938581,7.37830167 22.4501722,7.28225279 C22.4064864,7.18620389 22.3759062,7.12508186 22.3584319,7.0988867 C22.1924255,6.83693516 22.0788422,6.65356909 22.017682,6.54878847 C22.0002077,6.53132504 21.9587061,6.50294695 21.8931772,6.46365422 C21.8276485,6.42436149 21.7861469,6.39161755 21.7686725,6.3654224 C21.7511982,6.31303209 21.727171,6.2693735 21.6965909,6.23444662 C21.6660107,6.19951975 21.6245091,6.17114167 21.5720861,6.14931237 C21.519663,6.12748309 21.4803457,6.11220257 21.4541342,6.10347086 C21.4279227,6.09473914 21.3798682,6.08382449 21.3099709,6.07072691 C21.2400734,6.05762934 21.2007561,6.05108055 21.192019,6.05108055 C21.043487,6.0248854 20.8381634,6.01178782 20.5760481,6.01178782 C20.32267,5.96812922 20.1435579,6.05981226 20.0387117,6.28683694 C19.898917,6.52259332 19.7809651,6.81947172 19.6848562,7.17747216 C19.5013755,7.92839987 19.4271095,8.67932762 19.4620582,9.43025537 C19.4620582,9.62235325 19.490454,9.74023137 19.5472457,9.78389 C19.6040374,9.82754862 19.7285421,9.82318275 19.92076,9.77079237 C19.9906574,9.74459725 20.0976877,9.69438987 20.2418511,9.62017025 C20.3860145,9.54595062 20.4974135,9.49574325 20.5760481,9.46954812 C20.6808942,9.41715787 20.7333172,9.29927963 20.7333172,9.1159135 L20.7333172,8.5003275 C20.8032146,7.64461912 20.842532,7.12944772 20.8512691,6.95481336 C20.8512691,6.93734992 20.8774806,6.81510587 20.9299037,6.5880812 C21.4104484,7.08578912 21.6769322,7.5703995 21.7293552,8.04191225 C21.7555667,8.26893687 21.7686725,8.61383975 21.7686725,9.07662087 C21.7686725,9.11154775 21.7599354,9.15957212 21.742461,9.22069412 C21.7249866,9.28181625 21.7162495,9.34075525 21.7162495,9.3975115 C21.7162495,9.45426762 21.7337239,9.504475 21.7686725,9.54813362 C21.8560442,9.74023137 21.9914705,9.80135337 22.1749512,9.73149962 C22.5855985,9.504475 22.8389765,9.36040162 22.9350855,9.29927963 C22.9875085,9.24688937 23.01372,9.194499 23.01372,9.14210875 L23.01372,9.14210875 L23.01372,9.14210875 Z" id="Shape" transform="translate(14.999546, 10.000000) scale(1, -1) translate(-14.999546, -10.000000) "></path>
                </g>
            </g>
        </g>
    </g>
</svg>
