<svg viewBox="0 0 341 50" version="1.1" xmlns="http://www.w3.org/2000/svg" xmlns:xlink="http://www.w3.org/1999/xlink">
    <!-- Generator: Sketch 3.8.1 (29687) - http://www.bohemiancoding.com/sketch -->
    <title>DetroitJS Wordmark</title>
    <desc>Created with Sketch.</desc>
    <defs></defs>
    <g id="Page-1" stroke="none" stroke-width="1" fill="none" fill-rule="evenodd">
        <g id="Artboard-1" transform="translate(-13.000000, -20.000000)">
            <g id="Group" transform="translate(13.000000, 20.000000)">
                <g id="DetroitJS-Wordmark">
                    <path d="M4.726,49.2 L23.186,49.2 C34.73,49.2 41.49,41.556 41.49,27.88 C41.49,21.172 39.878,16.18 37.07,12.696 L33.066,7.704 C29.79,3.544 24.902,1.62 19.026,1.62 L0.566,1.62 L0.566,3.804 L4.726,9.004 L4.726,39.216 C4.726,41.4 4.31,41.816 2.126,41.816 L0.566,41.816 L0.566,44 L4.726,49.2 Z M20.586,41.296 L20.586,9.004 C20.95,8.9 21.522,8.848 21.99,8.848 C22.562,8.848 23.082,8.952 23.602,9.108 C24.642,12.28 25.058,16.856 25.058,22.836 C25.058,33.184 23.706,39.372 20.586,41.296 L20.586,41.296 Z M45.182,49.2 L77.162,49.2 L77.682,32.3 L73.522,27.1 L71.182,27.1 C71.13,28.868 70.662,30.792 69.882,32.664 L69.882,17.272 L65.722,12.072 L63.382,12.072 C63.382,14.984 62.498,17.428 61.042,19.04 L61.042,9.316 C61.042,8.952 62.134,8.9 62.654,8.9 C65.098,8.952 67.542,9.68 69.57,11.032 C70.09,12.436 70.35,13.788 70.35,15.556 L74.51,20.756 L76.85,20.808 L76.85,6.82 L72.69,1.62 L41.022,1.62 L41.022,3.804 L45.182,9.004 L45.182,39.216 C45.182,41.4 44.766,41.816 42.582,41.816 L41.022,41.816 L41.022,44 L45.182,49.2 Z M60.99,41.868 L61.042,28.504 C61.718,28.504 62.394,28.608 62.966,28.816 C63.226,29.908 63.382,31.156 63.382,32.56 L66.97,37.604 C65.358,39.632 63.278,41.244 60.99,41.868 L60.99,41.868 Z M89.59,49.2 L109.974,49.2 L109.974,47.016 L105.814,41.816 L105.814,9.472 C105.814,8.952 106.074,8.952 106.386,8.952 C106.958,8.952 107.582,9.16 108.154,9.472 C109.662,12.54 110.702,16.284 110.702,19.092 L114.862,24.292 L117.15,24.292 L117.15,6.82 L112.99,1.62 L78.254,1.62 L78.254,19.092 L82.414,24.292 L84.702,24.292 C84.702,20.236 86.834,14.256 89.59,11.084 L89.59,39.216 C89.59,41.4 89.226,41.816 86.99,41.816 L85.43,41.816 L85.43,44 L89.59,49.2 Z M152.302,49.876 C158.178,49.876 161.142,45.612 161.35,39.528 L157.19,34.328 L155.006,33.964 C155.006,34.328 154.954,34.64 154.902,34.952 C154.434,33.704 153.758,32.456 152.822,31.364 L149.338,26.996 C153.186,25.54 155.682,21.952 155.682,17.012 C155.682,14.516 155.11,12.54 153.862,11.032 L149.702,5.884 C147.362,2.92 142.682,1.62 135.922,1.62 L116.786,1.62 L116.786,3.804 L120.946,9.004 L120.946,39.216 C120.946,41.4 120.53,41.816 118.346,41.816 L116.786,41.816 L116.786,44 L120.946,49.2 L140.706,49.2 L140.706,47.016 L136.546,41.816 L136.546,28.296 C136.65,28.296 136.754,28.244 137.222,28.244 C137.482,28.244 137.742,28.244 138.002,28.296 C138.366,29.7 138.626,31.364 138.886,33.236 C139.302,36.148 139.874,39.424 141.954,42.076 L145.75,46.808 C147.05,48.628 149.13,49.876 152.302,49.876 L152.302,49.876 Z M136.546,20.6 L136.546,8.796 C136.91,8.692 137.326,8.64 137.794,8.64 C138.314,8.64 138.73,8.692 139.146,8.744 C139.354,9.836 139.458,11.084 139.458,12.436 C139.458,16.492 138.574,19.352 136.546,20.6 L136.546,20.6 Z M180.434,49.98 C190.418,49.98 198.166,40.672 198.166,27.984 C198.166,21.848 196.398,16.492 193.33,12.696 L189.326,7.652 C185.998,3.492 181.526,0.996 176.326,0.996 C166.498,0.996 158.75,9.94 158.75,22.888 C158.75,29.544 160.83,34.9 163.69,38.488 L167.642,43.376 C170.866,47.432 175.338,49.98 180.434,49.98 L180.434,49.98 Z M176.43,42.856 C176.222,41.764 176.118,40.516 176.118,39.06 L176.118,17.012 C176.118,10.928 178.042,8.068 180.59,8.068 C180.798,9.16 180.85,10.408 180.85,11.812 L180.85,33.86 C180.85,39.84 179.082,42.856 176.43,42.856 L176.43,42.856 Z M201.494,49.2 L221.462,49.2 L221.462,47.016 L217.302,41.816 L217.302,11.604 C217.302,9.42 217.718,9.004 219.902,9.004 L221.462,9.004 L221.462,6.82 L217.302,1.62 L197.282,1.62 L197.282,3.804 L201.494,9.004 L201.494,39.58 C201.494,41.4 200.974,41.816 198.894,41.816 L197.334,41.816 L197.334,44 L201.494,49.2 Z M232.434,49.2 L252.818,49.2 L252.818,47.016 L248.658,41.816 L248.658,9.472 C248.658,8.952 248.918,8.952 249.23,8.952 C249.802,8.952 250.426,9.16 250.998,9.472 C252.506,12.54 253.546,16.284 253.546,19.092 L257.706,24.292 L259.994,24.292 L259.994,6.82 L255.834,1.62 L221.098,1.62 L221.098,19.092 L225.258,24.292 L227.546,24.292 C227.546,20.236 229.678,14.256 232.434,11.084 L232.434,39.216 C232.434,41.4 232.07,41.816 229.834,41.816 L228.274,41.816 L228.274,44 L232.434,49.2 Z M290.674,49.824 C301.438,49.824 304.766,43.636 304.766,36.564 L304.766,11.604 C304.766,9.42 305.182,9.004 307.366,9.004 L308.926,9.004 L308.926,6.82 L304.766,1.62 L284.85,1.62 L284.85,3.804 L289.01,8.952 L288.906,30.324 C288.906,32.56 288.698,34.588 288.282,36.2 C288.022,35.368 287.554,34.64 287.034,34.016 L283.29,29.336 C282.146,27.62 280.326,26.684 278.35,26.684 C275.074,26.684 272.006,29.388 272.006,33.652 C272.006,35.836 272.838,38.228 274.606,40.204 L278.038,44.52 C280.118,47.484 284.174,49.824 290.674,49.824 L290.674,49.824 Z M327.334,49.824 C333.574,49.824 340.594,45.768 340.594,36.356 C340.594,32.456 339.398,29.648 337.578,27.568 L333.886,22.94 C330.922,18.988 325.878,17.22 322.29,14.932 C322.186,14.568 322.186,14.152 322.186,13.684 C322.29,10.616 324.162,8.64 327.126,8.64 C328.426,8.64 329.57,8.848 330.558,9.472 C331.39,11.5 331.858,13.736 331.858,15.972 L336.018,21.172 L338.306,21.172 L338.306,6.82 L334.146,1.62 L331.91,1.62 C331.806,3.232 331.598,4.272 330.714,4.272 C329.102,4.272 327.178,0.892 321.354,0.892 C314.438,0.892 308.614,5.416 308.614,13.684 C308.614,17.428 309.862,19.976 311.63,21.952 L314.75,25.852 C317.35,29.7 322.03,31.468 325.462,33.808 C325.618,34.38 325.67,34.952 325.67,35.628 C325.67,39.528 323.07,41.4 320.366,41.4 C318.962,41.4 317.506,40.88 316.154,39.944 C315.166,37.864 314.542,35.368 314.438,32.508 L310.278,27.308 L308.146,27.308 L308.146,44 L312.306,49.2 L314.542,49.2 C314.646,47.588 314.802,46.236 316.102,46.236 C318.182,46.236 321.458,49.824 327.334,49.824 L327.334,49.824 Z" id="shadow" fill="#F1DD40"></path>
                    <path d="M0.566,44 L19.026,44 C30.57,44 37.33,36.356 37.33,22.68 C37.33,8.12 29.79,1.62 19.026,1.62 L0.566,1.62 L0.566,3.804 L2.126,3.804 C4.31,3.804 4.726,4.22 4.726,6.404 L4.726,39.216 C4.726,41.4 4.31,41.816 2.126,41.816 L0.566,41.816 L0.566,44 Z M18.194,41.972 C17.778,41.972 16.79,41.92 16.426,41.816 L16.426,3.804 C16.79,3.7 17.362,3.648 17.83,3.648 C23.03,3.648 25.058,10.2 25.058,22.836 C25.058,35.524 23.03,41.972 18.194,41.972 L18.194,41.972 Z M41.022,44 L73.002,44 L73.522,27.1 L71.182,27.1 C70.87,33.652 65.462,42.076 59.17,42.076 C57.246,42.076 56.83,41.296 56.83,39.216 L56.882,23.304 C60.366,23.304 63.382,26.476 63.382,32.56 L65.722,32.56 L65.722,12.072 L63.382,12.072 C63.382,17.324 60.366,21.12 56.882,21.12 L56.882,4.116 C56.882,3.752 57.974,3.7 58.494,3.7 C64.578,3.804 70.35,7.912 70.35,15.556 L72.69,15.556 L72.69,1.62 L41.022,1.62 L41.022,3.804 L42.582,3.804 C44.766,3.804 45.182,4.22 45.182,6.404 L45.182,39.216 C45.182,41.4 44.766,41.816 42.582,41.816 L41.022,41.816 L41.022,44 Z M85.43,44 L105.814,44 L105.814,41.816 L104.254,41.816 C102.07,41.816 101.654,41.4 101.654,39.216 L101.654,4.272 C101.654,3.752 101.914,3.752 102.226,3.752 C106.386,3.804 110.702,13.32 110.702,19.092 L112.99,19.092 L112.99,1.62 L78.254,1.62 L78.254,19.092 L80.542,19.092 C80.542,13.32 84.858,3.804 89.018,3.752 C89.33,3.752 89.59,3.752 89.59,4.272 L89.59,39.216 C89.59,41.4 89.174,41.816 86.99,41.816 L85.43,41.816 L85.43,44 Z M148.142,44.676 C154.018,44.676 156.982,40.412 157.19,34.328 L155.006,33.964 C154.798,36.72 154.174,38.436 153.082,38.436 C151.99,38.436 152.146,36.772 152.042,35.784 C151.834,33.392 151.002,24.188 142.422,22.68 L142.422,22.472 C147.83,21.848 151.522,17.844 151.522,11.812 C151.522,4.584 146.166,1.62 135.922,1.62 L116.786,1.62 L116.786,3.804 L118.346,3.804 C120.53,3.804 120.946,4.22 120.946,6.404 L120.946,39.216 C120.946,41.4 120.53,41.816 118.346,41.816 L116.786,41.816 L116.786,44 L136.546,44 L136.546,41.816 L134.986,41.816 C132.802,41.816 132.386,41.4 132.386,39.216 L132.386,23.096 C132.49,23.044 132.594,23.044 133.062,23.044 C136.962,23.044 138.002,27.1 138.886,33.236 C139.51,37.604 140.602,44.676 148.142,44.676 L148.142,44.676 Z M133.686,21.328 C133.166,21.328 132.75,21.276 132.386,21.12 L132.386,3.596 C132.75,3.492 133.166,3.44 133.634,3.44 C137.638,3.44 139.458,6.664 139.458,12.436 C139.458,18.052 137.742,21.328 133.686,21.328 L133.686,21.328 Z M176.274,44.78 C186.258,44.78 194.006,35.472 194.006,22.784 C194.006,10.148 186.258,0.996 176.326,0.996 C166.498,0.996 158.75,9.94 158.75,22.888 C158.75,35.836 166.498,44.78 176.274,44.78 L176.274,44.78 Z M176.378,42.856 C173.83,42.856 171.958,39.892 171.958,33.86 L171.958,11.812 C171.958,5.728 173.83,2.868 176.378,2.868 C179.03,2.868 180.85,5.832 180.85,11.812 L180.85,33.86 C180.85,39.892 179.03,42.856 176.378,42.856 L176.378,42.856 Z M197.334,44 L217.302,44 L217.302,41.816 L215.742,41.816 C213.558,41.816 213.142,41.4 213.142,39.216 L213.142,6.404 C213.142,4.22 213.558,3.804 215.742,3.804 L217.302,3.804 L217.302,1.62 L197.282,1.62 L197.282,3.804 L198.842,3.804 C201.026,3.804 201.494,4.22 201.494,6.404 L201.494,39.58 C201.494,41.4 200.974,41.816 198.894,41.816 L197.334,41.816 L197.334,44 Z M228.274,44 L248.658,44 L248.658,41.816 L247.098,41.816 C244.914,41.816 244.498,41.4 244.498,39.216 L244.498,4.272 C244.498,3.752 244.758,3.752 245.07,3.752 C249.23,3.804 253.546,13.32 253.546,19.092 L255.834,19.092 L255.834,1.62 L221.098,1.62 L221.098,19.092 L223.386,19.092 C223.386,13.32 227.702,3.804 231.862,3.752 C232.174,3.752 232.434,3.752 232.434,4.272 L232.434,39.216 C232.434,41.4 232.018,41.816 229.834,41.816 L228.274,41.816 L228.274,44 Z M286.514,44.624 C297.278,44.624 300.606,38.436 300.606,31.364 L300.606,6.404 C300.606,4.22 301.022,3.804 303.206,3.804 L304.766,3.804 L304.766,1.62 L284.85,1.62 L284.85,3.804 L286.41,3.804 C288.386,3.804 288.906,4.116 289.01,5.78 L288.906,30.324 C288.906,36.668 287.346,40.776 282.874,40.88 C280.69,40.984 279.13,40.308 278.61,39.58 C281.574,39.268 284.382,36.772 284.382,33.028 C284.382,29.336 281.626,26.684 278.35,26.684 C275.074,26.684 272.006,29.388 272.006,33.652 C272.006,38.592 276.114,44.624 286.514,44.624 L286.514,44.624 Z M323.174,44.624 C329.414,44.624 336.434,40.568 336.434,31.156 C336.434,15.868 318.026,18 318.026,8.692 C318.026,5.468 319.95,3.44 322.966,3.44 C328.634,3.44 331.754,9.992 331.858,15.972 L334.146,15.972 L334.146,1.62 L331.91,1.62 C331.806,3.232 331.598,4.272 330.714,4.272 C329.102,4.272 327.178,0.892 321.354,0.892 C314.438,0.892 308.614,5.416 308.614,13.684 C308.614,27.568 325.67,25.54 325.67,35.628 C325.67,39.528 323.018,41.4 320.366,41.4 C315.686,41.4 310.642,35.836 310.278,27.308 L308.146,27.308 L308.146,44 L310.382,44 C310.486,42.388 310.642,41.036 311.942,41.036 C314.022,41.036 317.298,44.624 323.174,44.624 L323.174,44.624 Z" id="fill" fill="#323430"></path>
                    <path d="M6.858,5.104 L14.242,5.104 L14.242,3.804 L6.494,3.804 C6.702,4.168 6.806,4.636 6.858,5.104 L6.858,5.104 Z M24.226,5.104 L26.566,5.104 C25.786,4.636 24.382,4.168 23.446,4.012 C23.654,4.272 24.07,4.844 24.226,5.104 L24.226,5.104 Z M6.91,7.756 L14.242,7.756 L14.242,6.404 L6.91,6.404 L6.91,7.756 Z M25.474,7.756 L30.206,7.756 C29.686,7.236 29.166,6.768 28.594,6.404 L24.902,6.404 C25.11,6.82 25.318,7.236 25.474,7.756 L25.474,7.756 Z M6.91,10.356 L14.242,10.356 L14.242,9.004 L6.91,9.004 L6.91,10.356 Z M26.202,10.356 L32.286,10.356 C31.974,9.888 31.662,9.42 31.298,9.004 L25.838,9.004 C25.942,9.42 26.098,9.888 26.202,10.356 L26.202,10.356 Z M6.91,12.956 L14.242,12.956 L14.242,11.604 L6.91,11.604 L6.91,12.956 Z M26.67,12.956 L33.586,12.956 C33.43,12.488 33.222,12.072 33.014,11.604 L26.462,11.604 C26.566,12.072 26.618,12.488 26.67,12.956 L26.67,12.956 Z M6.91,15.608 L14.242,15.608 L14.242,14.256 L6.91,14.256 L6.91,15.608 Z M26.982,15.608 L34.418,15.608 C34.262,15.14 34.158,14.672 34.002,14.256 L26.826,14.256 L26.982,15.608 Z M6.91,18.208 L14.242,18.208 L14.242,16.856 L6.91,16.856 L6.91,18.208 Z M27.19,18.208 L34.886,18.208 C34.834,17.74 34.782,17.272 34.678,16.856 L27.086,16.856 C27.138,17.324 27.138,17.74 27.19,18.208 L27.19,18.208 Z M6.91,20.808 L14.242,20.808 L14.242,19.456 L6.91,19.456 L6.91,20.808 Z M27.242,20.808 L35.146,20.808 C35.094,20.392 35.042,19.924 35.042,19.456 L27.19,19.456 C27.242,19.924 27.242,20.392 27.242,20.808 L27.242,20.808 Z M6.91,23.46 L14.242,23.46 L14.242,22.108 L6.91,22.108 L6.91,23.46 Z M27.242,23.46 L35.146,23.46 L35.146,22.108 L27.242,22.108 L27.242,23.46 Z M6.91,26.06 L14.242,26.06 L14.242,24.708 L6.91,24.708 L6.91,26.06 Z M27.19,26.06 L34.99,26.06 C35.042,25.644 35.094,25.176 35.094,24.708 L27.242,24.708 C27.242,25.176 27.242,25.644 27.19,26.06 L27.19,26.06 Z M6.91,28.66 L14.242,28.66 L14.242,27.308 L6.91,27.308 L6.91,28.66 Z M27.086,28.66 L34.626,28.66 C34.73,28.244 34.782,27.776 34.886,27.308 L27.138,27.308 C27.138,27.776 27.138,28.244 27.086,28.66 L27.086,28.66 Z M6.91,31.312 L14.242,31.312 L14.242,29.96 L6.91,29.96 L6.91,31.312 Z M26.878,31.312 L34.002,31.312 C34.158,30.844 34.262,30.428 34.366,29.96 L27.034,29.96 L26.878,31.312 Z M6.91,33.912 L14.242,33.912 L14.242,32.56 L6.91,32.56 L6.91,33.912 Z M26.462,33.912 L32.91,33.912 L33.534,32.56 L26.722,32.56 C26.618,33.028 26.566,33.496 26.462,33.912 L26.462,33.912 Z M6.91,36.564 L14.242,36.564 L14.242,35.212 L6.91,35.212 L6.91,36.564 Z M25.89,36.564 L31.298,36.564 L32.234,35.212 L26.254,35.212 C26.15,35.68 26.046,36.096 25.89,36.564 L25.89,36.564 Z M6.91,39.164 L14.242,39.164 L14.242,37.812 L6.91,37.812 L6.91,39.164 Z M25.006,39.164 L28.594,39.164 C29.166,38.748 29.634,38.28 30.154,37.812 L25.526,37.812 C25.37,38.28 25.214,38.748 25.006,39.164 L25.006,39.164 Z M6.546,41.764 L14.294,41.764 L14.294,40.412 L6.91,40.412 C6.806,40.932 6.702,41.4 6.546,41.764 L6.546,41.764 Z M23.602,41.556 C24.486,41.4 25.838,40.88 26.566,40.412 L24.33,40.412 C24.174,40.724 23.81,41.296 23.602,41.556 L23.602,41.556 Z M47.262,5.156 L54.698,5.156 L54.698,3.804 L46.95,3.804 C47.106,4.168 47.21,4.636 47.262,5.156 L47.262,5.156 Z M68.01,4.948 L70.506,4.948 L70.506,3.804 L66.502,3.804 C67.022,4.168 67.542,4.532 68.01,4.948 L68.01,4.948 Z M70.506,8.12 L70.506,6.092 L69.102,6.092 C69.622,6.716 70.09,7.392 70.506,8.12 L70.506,8.12 Z M47.366,7.756 L54.698,7.756 L54.698,6.404 L47.366,6.404 L47.366,7.756 Z M47.366,10.408 L54.698,10.408 L54.698,9.056 L47.366,9.056 L47.366,10.408 Z M47.366,13.008 L54.698,13.008 L54.698,11.656 L47.366,11.656 L47.366,13.008 Z M47.366,15.608 L54.698,15.608 L54.698,14.256 L47.366,14.256 L47.366,15.608 Z M47.366,18.26 L54.698,18.26 L54.698,16.908 L47.366,16.908 L47.366,18.26 Z M60.938,21.484 L63.538,21.484 L63.538,19.144 C62.966,20.08 61.77,21.12 60.938,21.484 L60.938,21.484 Z M47.366,20.86 L54.698,20.86 L54.698,19.508 L47.366,19.508 L47.366,20.86 Z M47.366,23.46 L54.698,23.46 L54.698,22.108 L47.366,22.108 L47.366,23.46 Z M63.538,25.124 L63.538,22.888 L60.938,22.888 C61.718,23.2 62.966,24.24 63.538,25.124 L63.538,25.124 Z M47.366,26.112 L54.698,26.112 L54.698,24.76 L47.366,24.76 L47.366,26.112 Z M47.366,28.712 L54.698,28.712 L54.698,27.36 L47.366,27.36 L47.366,28.712 Z M47.366,31.364 L54.646,31.364 L54.698,30.012 L47.366,30.012 L47.366,31.364 Z M47.366,33.964 L54.646,33.964 L54.646,32.612 L47.366,32.612 L47.366,33.964 Z M69.986,36.824 L71.026,36.824 L71.078,34.952 C70.766,35.576 70.402,36.2 69.986,36.824 L69.986,36.824 Z M47.366,36.564 L54.646,36.564 L54.646,35.212 L47.366,35.212 L47.366,36.564 Z M47.366,39.216 L54.646,39.216 L54.646,37.864 L47.366,37.864 L47.366,39.216 Z M68.062,39.32 L70.922,39.32 L70.974,37.968 L69.154,37.968 C68.842,38.436 68.478,38.904 68.062,39.32 L68.062,39.32 Z M46.95,41.816 L55.01,41.816 C54.854,41.4 54.75,40.984 54.698,40.464 L47.262,40.464 C47.21,40.984 47.106,41.452 46.95,41.816 L46.95,41.816 Z M65.462,41.816 L70.87,41.816 L70.922,40.464 L67.022,40.464 C66.502,40.932 65.982,41.4 65.462,41.816 L65.462,41.816 Z M80.438,5.156 L83.246,5.156 C83.662,4.688 84.078,4.22 84.494,3.804 L80.438,3.804 L80.438,5.156 Z M91.774,5.156 L99.47,5.156 L99.47,4.272 C99.47,4.116 99.47,3.96 99.522,3.804 L91.722,3.804 C91.774,3.96 91.774,4.116 91.774,4.272 L91.774,5.156 Z M107.998,5.156 L110.806,5.156 L110.806,3.804 L106.75,3.804 C107.166,4.22 107.582,4.688 107.998,5.156 L107.998,5.156 Z M91.774,7.756 L99.47,7.756 L99.47,6.404 L91.774,6.404 L91.774,7.756 Z M80.438,9.264 C81.114,8.016 81.53,7.496 82.31,6.456 L80.438,6.456 L80.438,9.264 Z M110.806,9.264 L110.806,6.456 L108.934,6.456 C109.714,7.496 110.13,8.016 110.806,9.264 L110.806,9.264 Z M91.774,10.408 L99.47,10.408 L99.47,9.056 L91.774,9.056 L91.774,10.408 Z M91.774,13.008 L99.47,13.008 L99.47,11.656 L91.774,11.656 L91.774,13.008 Z M91.774,15.608 L99.47,15.608 L99.47,14.256 L91.774,14.256 L91.774,15.608 Z M91.774,18.26 L99.47,18.26 L99.47,16.908 L91.774,16.908 L91.774,18.26 Z M91.774,20.86 L99.47,20.86 L99.47,19.508 L91.774,19.508 L91.774,20.86 Z M91.774,23.46 L99.47,23.46 L99.47,22.108 L91.774,22.108 L91.774,23.46 Z M91.774,26.112 L99.47,26.112 L99.47,24.76 L91.774,24.76 L91.774,26.112 Z M91.774,28.712 L99.47,28.712 L99.47,27.36 L91.774,27.36 L91.774,28.712 Z M91.774,31.364 L99.47,31.364 L99.47,30.012 L91.774,30.012 L91.774,31.364 Z M91.774,33.964 L99.47,33.964 L99.47,32.612 L91.774,32.612 L91.774,33.964 Z M91.774,36.564 L99.47,36.564 L99.47,35.212 L91.774,35.212 L91.774,36.564 Z M91.774,39.216 L99.47,39.216 L99.47,37.864 L91.774,37.864 L91.774,39.216 Z M91.358,41.816 L99.886,41.816 C99.73,41.452 99.626,40.984 99.574,40.464 L91.67,40.464 C91.618,40.984 91.514,41.452 91.358,41.816 L91.358,41.816 Z M123.078,5.156 L130.202,5.156 L130.202,3.804 L122.714,3.804 C122.87,4.168 122.974,4.636 123.078,5.156 L123.078,5.156 Z M140.082,5.312 L145.646,5.312 C144.034,4.428 140.862,3.856 139.198,3.856 C139.51,4.272 139.822,4.792 140.082,5.312 L140.082,5.312 Z M123.13,7.756 L130.202,7.756 L130.202,6.404 L123.13,6.404 L123.13,7.756 Z M141.07,7.964 L148.35,7.964 C148.09,7.444 147.726,7.028 147.362,6.612 L140.654,6.612 C140.81,7.028 140.966,7.496 141.07,7.964 L141.07,7.964 Z M123.13,10.408 L130.202,10.408 L130.202,9.056 L123.13,9.056 L123.13,10.408 Z M141.59,10.616 L149.234,10.616 C149.182,10.148 149.078,9.68 148.922,9.264 L141.382,9.264 C141.486,9.68 141.538,10.148 141.59,10.616 L141.59,10.616 Z M123.13,13.008 L130.202,13.008 L130.202,11.656 L123.13,11.656 L123.13,13.008 Z M141.59,13.32 L149.234,13.32 C149.286,12.904 149.338,12.436 149.338,12.02 L149.338,11.968 L141.642,11.968 L141.642,12.488 C141.642,12.748 141.642,13.008 141.59,13.32 L141.59,13.32 Z M123.13,15.608 L130.202,15.608 L130.202,14.256 L123.13,14.256 L123.13,15.608 Z M141.33,15.972 L148.454,15.972 C148.662,15.504 148.87,15.088 148.974,14.62 L141.538,14.62 C141.486,15.088 141.434,15.504 141.33,15.972 L141.33,15.972 Z M123.13,18.26 L130.202,18.26 L130.202,16.908 L123.13,16.908 L123.13,18.26 Z M140.55,18.624 L146.478,18.624 C146.946,18.208 147.362,17.74 147.674,17.272 L141.018,17.272 L140.55,18.624 Z M123.13,20.86 L130.202,20.86 L130.202,19.508 L123.13,19.508 L123.13,20.86 Z M138.886,21.328 C141.278,21.328 142.838,20.964 144.71,19.924 L139.978,19.924 C139.666,20.444 139.25,20.964 138.886,21.328 L138.886,21.328 Z M123.13,23.46 L130.202,23.46 L130.202,22.108 L123.13,22.108 L123.13,23.46 Z M138.782,24.5 L143.462,24.5 C141.642,23.564 139.978,23.252 138.002,23.252 C138.314,23.616 138.522,23.98 138.782,24.5 L138.782,24.5 Z M123.13,26.112 L130.202,26.112 L130.202,24.76 L123.13,24.76 L123.13,26.112 Z M139.874,27.048 L146.582,27.048 C146.166,26.528 145.698,26.112 145.23,25.696 L139.354,25.696 C139.562,26.112 139.718,26.58 139.874,27.048 L139.874,27.048 Z M123.13,28.712 L130.202,28.712 L130.202,27.36 L123.13,27.36 L123.13,28.712 Z M140.498,29.648 L148.194,29.648 C147.986,29.18 147.726,28.712 147.466,28.296 L140.186,28.296 L140.498,29.648 Z M123.13,31.364 L130.202,31.364 L130.202,30.012 L123.13,30.012 L123.13,31.364 Z M140.966,32.196 L149.182,32.196 C149.078,31.728 148.922,31.26 148.766,30.844 L140.758,30.844 L140.966,32.196 Z M123.13,33.964 L130.202,33.964 L130.202,32.612 L123.13,32.612 L123.13,33.964 Z M141.33,34.744 L149.754,34.744 L149.494,33.392 L141.122,33.392 L141.33,34.744 Z M123.13,36.564 L130.202,36.564 L130.202,35.212 L123.13,35.212 L123.13,36.564 Z M141.902,37.292 L150.014,37.292 C149.91,36.824 149.858,36.408 149.858,35.992 L149.858,35.94 L141.538,35.94 C141.642,36.408 141.746,36.876 141.902,37.292 L141.902,37.292 Z M123.13,39.216 L130.202,39.216 L130.202,37.864 L123.13,37.864 L123.13,39.216 Z M143.098,39.892 L151.054,39.892 C150.742,39.528 150.482,39.06 150.326,38.54 L142.37,38.54 C142.578,39.008 142.838,39.476 143.098,39.892 L143.098,39.892 Z M122.714,41.816 L130.618,41.816 C130.462,41.4 130.358,40.984 130.306,40.464 L123.078,40.464 C122.974,40.984 122.87,41.4 122.714,41.816 L122.714,41.816 Z M147.934,42.492 C149.754,42.492 151.21,42.128 152.458,41.088 L144.034,41.088 C145.282,42.18 146.582,42.492 147.934,42.492 L147.934,42.492 Z M168.682,5.676 L170.606,5.676 C170.762,5.208 170.97,4.688 171.178,4.272 C170.294,4.636 169.67,5 168.682,5.676 L168.682,5.676 Z M182.202,5.676 L184.126,5.676 C183.034,4.896 182.41,4.584 181.63,4.272 C181.838,4.688 182.046,5.208 182.202,5.676 L182.202,5.676 Z M165.874,8.224 L169.982,8.224 C170.086,7.756 170.138,7.288 170.242,6.872 L167.174,6.872 C166.706,7.288 166.29,7.756 165.874,8.224 L165.874,8.224 Z M182.774,8.224 L186.882,8.224 C186.466,7.756 186.05,7.288 185.582,6.872 L182.514,6.872 C182.618,7.288 182.722,7.756 182.774,8.224 L182.774,8.224 Z M164.054,10.772 L169.774,10.772 L169.878,9.42 L164.938,9.42 C164.626,9.836 164.314,10.304 164.054,10.772 L164.054,10.772 Z M183.034,10.772 L188.754,10.772 C188.442,10.304 188.182,9.836 187.87,9.42 L182.93,9.42 L183.034,10.772 Z M162.806,13.32 L169.774,13.32 L169.774,11.968 L163.43,11.968 L162.806,13.32 Z M183.034,13.32 L190.002,13.32 C189.846,12.852 189.638,12.384 189.378,11.968 L183.034,11.968 L183.034,13.32 Z M161.87,15.92 L169.774,15.92 L169.774,14.568 L162.286,14.568 L161.87,15.92 Z M183.034,15.92 L190.938,15.92 L190.522,14.568 L183.034,14.568 L183.034,15.92 Z M161.35,18.468 L169.774,18.468 L169.774,17.116 L161.61,17.116 L161.35,18.468 Z M183.034,18.468 L191.458,18.468 L191.198,17.116 L183.034,17.116 L183.034,18.468 Z M161.038,21.016 L169.774,21.016 L169.774,19.664 L161.142,19.664 L161.038,21.016 Z M183.034,21.016 L191.77,21.016 L191.666,19.664 L183.034,19.664 L183.034,21.016 Z M160.986,23.564 L169.774,23.564 L169.774,22.212 L160.986,22.212 L160.986,23.564 Z M183.034,23.564 L191.822,23.564 L191.822,22.212 L183.034,22.212 L183.034,23.564 Z M161.142,26.112 L169.774,26.112 L169.774,24.76 L161.038,24.76 L161.142,26.112 Z M183.034,26.112 L191.614,26.112 L191.77,24.76 L183.034,24.76 L183.034,26.112 Z M161.61,28.66 L169.774,28.66 L169.774,27.308 L161.35,27.308 L161.61,28.66 Z M183.034,28.66 L191.198,28.66 L191.458,27.308 L183.034,27.308 L183.034,28.66 Z M162.338,31.208 L169.774,31.208 L169.774,29.856 L161.922,29.856 L162.338,31.208 Z M183.034,31.208 L190.47,31.208 L190.886,29.856 L183.034,29.856 L183.034,31.208 Z M163.482,33.808 L169.774,33.808 L169.774,32.456 L162.858,32.456 L163.482,33.808 Z M183.034,33.808 L189.326,33.808 C189.586,33.392 189.794,32.924 189.95,32.456 L183.034,32.456 L183.034,33.808 Z M164.99,36.356 L169.878,36.356 L169.774,35.004 L164.106,35.004 C164.366,35.472 164.678,35.94 164.99,36.356 L164.99,36.356 Z M182.93,36.356 L187.818,36.356 C188.13,35.94 188.442,35.472 188.702,35.004 L183.034,35.004 L182.93,36.356 Z M167.226,38.904 L170.294,38.904 C170.19,38.488 170.086,38.02 170.034,37.552 L165.926,37.552 C166.342,38.02 166.758,38.488 167.226,38.904 L167.226,38.904 Z M182.514,38.904 L185.582,38.904 C186.05,38.488 186.466,38.02 186.882,37.552 L182.774,37.552 C182.722,38.02 182.618,38.488 182.514,38.904 L182.514,38.904 Z M171.23,41.504 C171.022,41.088 170.814,40.568 170.658,40.1 L168.734,40.1 C169.826,40.88 170.45,41.192 171.23,41.504 L171.23,41.504 Z M181.578,41.504 C182.462,41.14 183.086,40.776 184.074,40.1 L182.15,40.1 C181.994,40.568 181.786,41.088 181.578,41.504 L181.578,41.504 Z M203.574,5.156 L211.062,5.156 C211.114,4.636 211.218,4.168 211.374,3.804 L203.21,3.804 C203.366,4.168 203.522,4.636 203.574,5.156 L203.574,5.156 Z M203.626,7.756 L210.958,7.756 L210.958,6.404 L203.626,6.404 L203.626,7.756 Z M203.626,10.356 L210.958,10.356 L210.958,9.004 L203.626,9.004 L203.626,10.356 Z M203.626,13.008 L210.958,13.008 L210.958,11.656 L203.626,11.656 L203.626,13.008 Z M203.626,15.608 L210.958,15.608 L210.958,14.256 L203.626,14.256 L203.626,15.608 Z M203.626,18.26 L210.958,18.26 L210.958,16.908 L203.626,16.908 L203.626,18.26 Z M203.626,20.86 L210.958,20.86 L210.958,19.508 L203.626,19.508 L203.626,20.86 Z M203.626,23.46 L210.958,23.46 L210.958,22.108 L203.626,22.108 L203.626,23.46 Z M203.626,26.112 L210.958,26.112 L210.958,24.76 L203.626,24.76 L203.626,26.112 Z M203.626,28.712 L210.958,28.712 L210.958,27.36 L203.626,27.36 L203.626,28.712 Z M203.626,31.312 L210.958,31.312 L210.958,29.96 L203.626,29.96 L203.626,31.312 Z M203.626,33.964 L210.958,33.964 L210.958,32.612 L203.626,32.612 L203.626,33.964 Z M203.626,36.564 L210.958,36.564 L210.958,35.212 L203.626,35.212 L203.626,36.564 Z M203.626,39.164 L210.958,39.164 L210.958,37.812 L203.626,37.812 L203.626,39.164 Z M203.21,41.816 L211.374,41.816 C211.218,41.4 211.114,40.984 211.062,40.464 L203.574,40.464 C203.522,40.984 203.366,41.4 203.21,41.816 L203.21,41.816 Z M223.282,5.156 L226.09,5.156 C226.506,4.688 226.922,4.22 227.338,3.804 L223.282,3.804 L223.282,5.156 Z M234.618,5.156 L242.314,5.156 L242.314,4.272 C242.314,4.116 242.314,3.96 242.366,3.804 L234.566,3.804 C234.618,3.96 234.618,4.116 234.618,4.272 L234.618,5.156 Z M250.842,5.156 L253.65,5.156 L253.65,3.804 L249.594,3.804 C250.01,4.22 250.426,4.688 250.842,5.156 L250.842,5.156 Z M234.618,7.756 L242.314,7.756 L242.314,6.404 L234.618,6.404 L234.618,7.756 Z M223.282,9.264 C223.958,8.016 224.374,7.496 225.154,6.456 L223.282,6.456 L223.282,9.264 Z M253.65,9.264 L253.65,6.456 L251.778,6.456 C252.558,7.496 252.974,8.016 253.65,9.264 L253.65,9.264 Z M234.618,10.408 L242.314,10.408 L242.314,9.056 L234.618,9.056 L234.618,10.408 Z M234.618,13.008 L242.314,13.008 L242.314,11.656 L234.618,11.656 L234.618,13.008 Z M234.618,15.608 L242.314,15.608 L242.314,14.256 L234.618,14.256 L234.618,15.608 Z M234.618,18.26 L242.314,18.26 L242.314,16.908 L234.618,16.908 L234.618,18.26 Z M234.618,20.86 L242.314,20.86 L242.314,19.508 L234.618,19.508 L234.618,20.86 Z M234.618,23.46 L242.314,23.46 L242.314,22.108 L234.618,22.108 L234.618,23.46 Z M234.618,26.112 L242.314,26.112 L242.314,24.76 L234.618,24.76 L234.618,26.112 Z M234.618,28.712 L242.314,28.712 L242.314,27.36 L234.618,27.36 L234.618,28.712 Z M234.618,31.364 L242.314,31.364 L242.314,30.012 L234.618,30.012 L234.618,31.364 Z M234.618,33.964 L242.314,33.964 L242.314,32.612 L234.618,32.612 L234.618,33.964 Z M234.618,36.564 L242.314,36.564 L242.314,35.212 L234.618,35.212 L234.618,36.564 Z M234.618,39.216 L242.314,39.216 L242.314,37.864 L234.618,37.864 L234.618,39.216 Z M234.202,41.816 L242.73,41.816 C242.574,41.452 242.47,40.984 242.418,40.464 L234.514,40.464 C234.462,40.984 234.358,41.452 234.202,41.816 L234.202,41.816 Z M291.194,5.156 L298.526,5.156 C298.578,4.636 298.734,4.168 298.89,3.804 L290.83,3.804 C291.038,4.168 291.142,4.636 291.194,5.156 L291.194,5.156 Z M291.194,7.808 L298.422,7.808 L298.422,6.456 L291.194,6.456 L291.194,7.808 Z M291.194,10.46 L298.474,10.46 L298.474,9.108 L291.194,9.108 L291.194,10.46 Z M291.194,13.164 L298.474,13.164 L298.474,11.812 L291.194,11.812 L291.194,13.164 Z M291.142,15.816 L298.422,15.816 L298.422,14.464 L291.194,14.464 L291.142,15.816 Z M291.142,18.468 L298.422,18.468 L298.422,17.116 L291.142,17.116 L291.142,18.468 Z M291.142,21.12 L298.474,21.12 L298.474,19.768 L291.194,19.768 L291.142,21.12 Z M291.142,23.772 L298.474,23.772 L298.474,22.42 L291.142,22.42 L291.142,23.772 Z M291.142,26.476 L298.474,26.476 L298.474,25.124 L291.142,25.124 L291.142,26.476 Z M291.09,29.128 L298.422,29.128 L298.422,27.776 L291.09,27.776 L291.09,29.128 Z M275.386,30.116 L281.158,30.116 C280.482,29.336 279.442,28.816 278.298,28.816 C277.154,28.816 276.166,29.336 275.386,30.116 L275.386,30.116 Z M291.09,31.78 L298.474,31.78 L298.474,30.428 L291.142,30.428 C291.142,30.896 291.142,31.364 291.09,31.78 L291.09,31.78 Z M274.242,32.56 L282.146,32.56 C282.094,32.092 281.99,31.624 281.834,31.208 L274.71,31.208 C274.502,31.624 274.346,32.092 274.242,32.56 L274.242,32.56 Z M290.83,34.432 L298.214,34.432 L298.37,33.08 L290.986,33.08 C290.986,33.548 290.934,34.016 290.83,34.432 L290.83,34.432 Z M274.346,35.004 L281.73,35.004 C281.938,34.588 282.042,34.12 282.146,33.652 L274.138,33.652 C274.138,34.12 274.242,34.588 274.346,35.004 L274.346,35.004 Z M290.258,37.136 L297.382,37.136 C297.538,36.668 297.746,36.252 297.902,35.784 L290.622,35.784 C290.518,36.252 290.414,36.668 290.258,37.136 L290.258,37.136 Z M277.882,37.396 C279.13,37.396 280.222,36.876 281.002,36.044 L274.814,36.044 C275.438,36.876 276.426,37.396 277.882,37.396 L277.882,37.396 Z M289.01,39.788 L295.354,39.788 C295.822,39.372 296.238,38.904 296.602,38.436 L289.738,38.436 C289.53,38.904 289.27,39.372 289.01,39.788 L289.01,39.788 Z M285.994,42.44 L286.566,42.44 C289.374,42.44 291.662,41.972 293.43,41.088 L287.97,41.088 C287.398,41.66 286.774,42.128 285.994,42.44 L285.994,42.44 Z M314.386,5.052 L316.57,5.052 C316.726,4.584 317.246,3.908 317.61,3.492 C316.466,3.804 315.218,4.376 314.386,5.052 L314.386,5.052 Z M332.222,8.38 L332.222,5.936 C331.962,6.144 331.338,6.248 330.974,6.248 C331.338,6.82 331.962,7.756 332.222,8.38 L332.222,8.38 Z M311.994,7.704 L315.79,7.704 C315.842,7.236 315.894,6.768 316.05,6.352 L312.982,6.352 C312.618,6.768 312.306,7.236 311.994,7.704 L311.994,7.704 Z M310.954,10.356 L315.894,10.356 C315.842,9.94 315.738,9.472 315.738,9.004 L311.37,9.004 C311.162,9.42 311.058,9.888 310.954,10.356 L310.954,10.356 Z M310.538,13.06 L316.83,13.06 C316.57,12.644 316.414,12.176 316.206,11.708 L310.642,11.708 C310.59,12.124 310.538,12.592 310.538,13.06 L310.538,13.06 Z M310.694,15.712 L319.014,15.712 C318.546,15.296 318.078,14.828 317.714,14.36 L310.538,14.36 C310.538,14.828 310.59,15.296 310.694,15.712 L310.694,15.712 Z M311.682,18.364 L323.07,18.364 C322.29,17.948 321.458,17.48 320.782,17.012 L311.058,17.012 C311.214,17.48 311.422,17.948 311.682,18.364 L311.682,18.364 Z M313.866,21.016 L327.854,21.016 C327.074,20.548 326.242,20.08 325.462,19.664 L312.514,19.664 C312.93,20.132 313.398,20.6 313.866,21.016 L313.866,21.016 Z M317.922,23.72 L331.338,23.72 C330.87,23.252 330.35,22.784 329.778,22.368 L315.634,22.368 C316.414,22.784 317.194,23.252 317.922,23.72 L317.922,23.72 Z M322.342,26.372 L333.158,26.372 C332.95,25.904 332.638,25.436 332.326,25.02 L320.158,25.02 C320.886,25.436 321.614,25.904 322.342,26.372 L322.342,26.372 Z M325.306,29.024 L333.99,29.024 C333.886,28.556 333.782,28.088 333.626,27.672 L324.058,27.672 C324.526,28.088 324.942,28.556 325.306,29.024 L325.306,29.024 Z M326.866,31.676 L334.146,31.676 L334.146,31.156 L334.146,30.324 L326.242,30.324 C326.502,30.74 326.71,31.208 326.866,31.676 L326.866,31.676 Z M327.49,34.328 L333.782,34.328 C333.886,33.912 333.99,33.444 334.042,32.976 L327.282,32.976 C327.386,33.392 327.438,33.86 327.49,34.328 L327.49,34.328 Z M327.438,37.032 L332.794,37.032 C333.002,36.616 333.21,36.148 333.366,35.68 L327.542,35.68 C327.542,36.148 327.49,36.616 327.438,37.032 L327.438,37.032 Z M310.122,39.112 C310.538,38.904 311.11,38.748 311.734,38.748 C311.162,37.968 310.59,37.084 310.122,36.148 L310.122,39.112 Z M326.606,39.684 L330.766,39.684 C331.234,39.268 331.65,38.8 332.014,38.332 L327.178,38.332 C327.022,38.8 326.814,39.268 326.606,39.684 L326.606,39.684 Z M323.902,42.492 C325.93,42.336 327.75,41.764 329.05,40.984 L325.722,40.984 C325.306,41.504 324.526,42.128 323.902,42.492 L323.902,42.492 Z" id="lines" fill="#FDF6B9"></path>
                </g>
            </g>
        </g>
    </g>
</svg>
