<?xml version="1.0" encoding="utf-8"?>
<!-- Generator: Adobe Illustrator 16.0.4, SVG Export Plug-In . SVG Version: 6.00 Build 0)  -->
<!DOCTYPE svg PUBLIC "-//W3C//DTD SVG 1.1//EN" "http://www.w3.org/Graphics/SVG/1.1/DTD/svg11.dtd">
<svg version="1.1" id="Logo_FIXED" xmlns="http://www.w3.org/2000/svg" xmlns:xlink="http://www.w3.org/1999/xlink" x="0px" y="0px"
     width="382.5px" height="310.801px" viewBox="114.75 240.631 382.5 310.801" enable-background="new 114.75 240.631 382.5 310.801"
     xml:space="preserve">
<title>Twitter_Logo_Blue</title>
<path d="M235.039,551.433c144.34,0,223.289-119.585,223.289-223.288c0-3.396,0-6.778-0.229-10.144
    c15.358-11.109,28.616-24.864,39.152-40.622c-14.322,6.347-29.517,10.509-45.074,12.347c16.383-9.808,28.644-25.233,34.502-43.406
    c-15.404,9.141-32.258,15.583-49.832,19.048c-29.721-31.603-79.433-33.128-111.034-3.408
    c-20.381,19.167-29.029,47.728-22.703,74.981c-63.099-3.163-121.888-32.966-161.736-81.993
    c-20.829,35.858-10.19,81.73,24.296,104.759c-12.489-0.37-24.705-3.739-35.619-9.823c0,0.321,0,0.658,0,0.995
    c0.01,37.356,26.343,69.532,62.959,76.928c-11.553,3.151-23.675,3.611-35.435,1.347c10.281,31.968,39.743,53.868,73.317,54.498
    c-27.789,21.84-62.117,33.696-97.461,33.66c-6.244-0.012-12.481-0.39-18.681-1.132c35.888,23.03,77.646,35.247,120.289,35.189"/>
</svg>
